<?xml version="1.0" encoding="utf-8"?>
<!-- Generator: Adobe Illustrator 25.0.0, SVG Export Plug-In . SVG Version: 6.00 Build 0)  -->
<svg version="1.1" id="Layer_1" xmlns="http://www.w3.org/2000/svg" xmlns:xlink="http://www.w3.org/1999/xlink" x="0px" y="0px"
	 viewBox="0 0 31.9 32" style="enable-background:new 0 0 31.9 32;" xml:space="preserve">
<style type="text/css">
	.st0{fill:#FF914D;}
</style>
<path class="st0" d="M25,32H6.9C3.1,32,0,28.9,0,25.1V6.9C0,3.1,3.1,0,6.9,0H25c3.8,0,6.9,3.1,6.9,6.9v18.2C31.9,28.9,28.8,32,25,32
	z"/>
<g>
	<path d="M9.6,22.9c-1.4,0-2.7-0.3-3.7-0.9c-1-0.6-1.8-1.4-2.3-2.4c-0.5-1-0.8-2.3-0.8-3.7c0-1.4,0.3-2.6,0.8-3.7
		c0.5-1,1.3-1.8,2.3-2.4c1-0.6,2.2-0.9,3.7-0.9c1.4,0,2.6,0.2,3.5,0.7c0.9,0.5,1.6,1.1,2.1,1.9c0.5,0.8,0.7,1.7,0.7,2.8v0.5h-4v-0.1
		c0-0.8-0.2-1.3-0.5-1.6c-0.3-0.3-1-0.5-1.9-0.5c-0.6,0-1.2,0.1-1.5,0.2c-0.4,0.2-0.6,0.5-0.8,0.9S7,15.1,7,16
		c0,0.9,0.1,1.6,0.2,2.1S7.6,18.9,8,19c0.4,0.2,0.9,0.2,1.5,0.2c0.9,0,1.6-0.2,1.9-0.5c0.3-0.3,0.5-0.8,0.5-1.6v-0.1h4v0.5
		c0,1-0.2,2-0.7,2.8c-0.5,0.8-1.2,1.4-2.1,1.9C12.2,22.7,11,22.9,9.6,22.9z"/>
	<path d="M22.9,22.9c-1.4,0-2.5-0.2-3.4-0.7c-0.9-0.5-1.6-1.1-2-1.9c-0.4-0.8-0.7-1.8-0.7-2.8V9.3h3.8v8.1c0,0.5,0.1,0.9,0.2,1.2
		c0.1,0.3,0.3,0.5,0.7,0.6s0.8,0.2,1.5,0.2c0.6,0,1.1-0.1,1.5-0.2s0.6-0.3,0.7-0.6c0.1-0.3,0.2-0.7,0.2-1.2V9.3H29v8.3
		c0,1.1-0.2,2-0.7,2.8c-0.4,0.8-1.1,1.4-2,1.9C25.4,22.7,24.3,22.9,22.9,22.9z"/>
</g>
</svg>
